<svg width="41" height="68" viewBox="0 0 41 68" fill="none" xmlns="http://www.w3.org/2000/svg">
<g clip-path="url(#clip0_118_494)">
<path d="M0 44.8544V51.4909L0.161212 51.949C1.08905 54.5736 2.22449 56.1686 3.63365 56.8239C5.53803 57.7082 7.44706 56.7247 9.29462 55.7719C12.2243 54.2619 14.5624 53.0564 17.2311 57.6468H3.37617C2.48075 57.6468 1.62201 58.0089 0.988857 58.6535C0.355703 59.298 0 60.1722 0 61.0837L0 67.7202H16.4146C17.31 67.7202 18.1688 67.3581 18.8019 66.7135C19.4351 66.069 19.7908 65.1948 19.7908 64.2833V57.6468L19.422 56.9514C15.6155 49.7659 11.4518 51.9123 8.41317 53.4803C6.8428 54.2867 5.49396 54.9844 4.44202 54.4944C3.68932 54.1403 2.98648 53.1343 2.35439 51.4909H16.4146C16.8581 51.4909 17.2972 51.4019 17.7069 51.2291C18.1166 51.0563 18.4888 50.8031 18.8023 50.4838C19.1159 50.1645 19.3645 49.7855 19.5341 49.3684C19.7037 48.9513 19.7909 48.5042 19.7908 48.0528V41.4175H3.37617C2.48075 41.4175 1.62201 41.7796 0.988857 42.4241C0.355703 43.0687 0 43.9429 0 44.8544H0Z" fill="black"/>
<path d="M41.0004 0.00590329L40.8925 0H37.8782L30.786 9.42519V0.00472263H20.8906V26.5872H30.786V17.4454L37.884 26.6097H41.0004L30.8846 13.4359L41.0004 0.00590329Z" fill="black"/>
<path d="M10.3083 17.6333H9.48366V0.00488281H0V40.2984H9.48366V22.67H10.3083V40.2984H19.7908V0.00488281H10.3083V17.6333Z" fill="black"/>
<path d="M20.8906 68H30.786V50.3716H37.8909V41.12H30.786V40.2983H41.0004V27.7065H20.8906V68Z" fill="black"/>
</g>
<defs>
<clipPath id="clip0_118_494">
<rect width="41" height="68" fill="white"/>
</clipPath>
</defs>
</svg>
