<svg width="34" height="34" viewBox="0 0 34 34" fill="none" xmlns="http://www.w3.org/2000/svg">
<path d="M32.1036 0C32.6314 0 33.0811 0.195509 33.4526 0.547426C33.824 0.938444 34 1.36856 34 1.91599V32.1026C34 32.6305 33.8045 33.0802 33.4526 33.4516C33.2746 33.6324 33.0611 33.7743 32.8256 33.8686C32.59 33.9628 32.3376 34.0072 32.084 33.999H23.5012V20.8999H27.9001L28.5062 15.7189H23.5012V12.3953C23.5012 11.6132 23.6967 10.9876 24.0486 10.577C24.4005 10.186 25.0261 9.95142 26.0037 9.95142H28.6822V5.35695C27.5091 5.23965 26.1992 5.16144 24.7524 5.16144C22.7778 5.16144 21.1746 5.74797 19.9624 6.92103C18.7503 8.09408 18.1442 9.73636 18.1442 11.8674V15.7189H13.7648V20.8999H18.1442V33.999H1.91694C1.36951 33.999 0.939393 33.8035 0.548374 33.4516C0.367614 33.2736 0.225658 33.0602 0.131445 32.8246C0.0372311 32.5891 -0.00720006 32.3366 0.000948403 32.0831V1.91599C0.000948403 1.38812 0.196458 0.938444 0.548374 0.566977C0.726357 0.386216 0.939836 0.244261 1.17537 0.150047C1.4109 0.0558336 1.66339 0.0114024 1.91694 0.0195509H32.1036V0Z" fill="white"/>
</svg>
