<svg width="34" height="34" viewBox="0 0 34 34" fill="none" xmlns="http://www.w3.org/2000/svg">
<path d="M17 3.07211C21.5359 3.07211 22.0787 3.09149 23.862 3.169C25.5291 3.24651 26.4208 3.51781 27.0217 3.75035C27.8164 4.07978 28.3786 4.42859 28.9795 5.02932C29.561 5.61067 29.9487 6.19203 30.2395 6.96716C30.4721 7.58727 30.7628 8.47867 30.821 10.1452C30.9179 11.928 30.9373 12.4706 30.9373 17.0052C30.9373 21.5397 30.9179 22.0823 30.8404 23.8651C30.8316 24.9438 30.6348 26.0127 30.2588 27.0238C29.9293 27.8183 29.5804 28.3803 28.9795 28.981C28.3979 29.5623 27.8164 29.9499 27.0217 30.26C26.4208 30.4925 25.5291 30.7638 23.862 30.8413C22.0787 30.9188 21.5359 30.9382 17 30.9382C12.4641 30.9382 11.9213 30.9382 10.1186 30.8413C9.0461 30.8303 7.98364 30.6336 6.97833 30.26C6.1642 29.9499 5.62144 29.5817 5.02052 28.981C4.41961 28.3996 4.05131 27.8183 3.74116 27.0432C3.36603 26.0251 3.1693 24.95 3.15964 23.8651C3.0821 22.0823 3.06271 21.5397 3.06271 17.0052C3.06271 12.4706 3.06271 11.928 3.15964 10.1452C3.23717 8.47867 3.50855 7.58727 3.74116 6.98654C4.05131 6.19203 4.41961 5.63005 5.02052 5.02932C5.60205 4.44797 6.18358 4.0604 6.95895 3.76973C7.57925 3.53719 8.47092 3.24651 10.1186 3.18838C11.9213 3.09149 12.4447 3.07211 17 3.07211ZM17 0.0103229C12.3865 0.0103229 11.805 0.0297013 9.9829 0.107215C8.18016 0.184728 6.93957 0.494782 5.85405 0.88235C4.74914 1.32805 3.79932 1.92878 2.84949 2.85894C1.93843 3.80849 1.3569 4.75803 0.891676 5.86259C0.465222 6.94778 0.174458 8.188 0.116306 9.99019C0 11.8311 0 12.4125 0 17.0052C0 21.5978 0.0193843 22.1986 0.0969213 24.0008C0.174458 25.8223 0.484607 27.0432 0.872292 28.1284C1.31813 29.2523 1.91904 30.2018 2.84949 31.1514C3.79932 32.0815 4.74914 32.6629 5.85405 33.1086C6.93957 33.5349 8.18016 33.8256 9.9829 33.8837C11.805 33.9806 12.3865 34 17 34C21.6328 34 22.195 33.9806 24.0171 33.9031C25.8198 33.8256 27.0604 33.5155 28.146 33.1086C29.2785 32.6835 30.3041 32.0154 31.1505 31.1514C32.1003 30.2018 32.6819 29.2523 33.1083 28.1284C33.5348 27.0625 33.8255 25.8223 33.9031 24.0008C33.9806 22.1986 34 21.6172 34 17.0052C34 12.3737 34 11.8118 33.9031 9.99019C33.8786 8.58053 33.6165 7.18509 33.1277 5.86259C32.6968 4.7286 32.0218 3.70317 31.1505 2.85894C30.301 1.99872 29.2763 1.33122 28.146 0.901728C26.8246 0.405059 25.4285 0.1364 24.0171 0.107215C21.6793 0.013568 19.3395 -0.0187404 17 0.0103229Z" fill="white"/>
<path d="M17.0579 7.76163C14.7444 7.76163 12.5257 8.68037 10.8898 10.3157C9.25398 11.9511 8.33496 14.1691 8.33496 16.4819C8.33496 18.7947 9.25398 21.0127 10.8898 22.6481C12.5257 24.2834 14.7444 25.2022 17.0579 25.2022C19.3713 25.2022 21.59 24.2834 23.2259 22.6481C24.8618 21.0127 25.7808 18.7947 25.7808 16.4819C25.7808 14.1691 24.8618 11.9511 23.2259 10.3157C21.59 8.68037 19.3713 7.76163 17.0579 7.76163ZM17.0579 22.1598C16.3133 22.1598 15.576 22.0132 14.8881 21.7283C14.2002 21.4434 13.5752 21.0259 13.0487 20.4996C12.5222 19.9733 12.1045 19.3484 11.8196 18.6607C11.5346 17.973 11.388 17.2359 11.388 16.4916C11.388 15.7472 11.5346 15.0102 11.8196 14.3225C12.1045 13.6348 12.5222 13.0099 13.0487 12.4836C13.5752 11.9572 14.2002 11.5397 14.8881 11.2549C15.576 10.97 16.3133 10.8234 17.0579 10.8234C18.5616 10.8234 20.0038 11.4206 21.0671 12.4836C22.1304 13.5466 22.7278 14.9883 22.7278 16.4916C22.7278 17.9949 22.1304 19.4366 21.0671 20.4996C20.0038 21.5626 18.5616 22.1598 17.0579 22.1598ZM26.0328 9.69946C26.5726 9.69946 27.0903 9.48509 27.472 9.10351C27.8537 8.72192 28.0681 8.20438 28.0681 7.66473C28.0681 7.12509 27.8537 6.60755 27.472 6.22596C27.0903 5.84438 26.5726 5.63 26.0328 5.63C25.493 5.63 24.9753 5.84438 24.5936 6.22596C24.2119 6.60755 23.9974 7.12509 23.9974 7.66473C23.9974 8.20438 24.2119 8.72192 24.5936 9.10351C24.9753 9.48509 25.493 9.69946 26.0328 9.69946Z" fill="white"/>
</svg>
