<svg width="60" height="98" viewBox="0 0 60 98" fill="none" xmlns="http://www.w3.org/2000/svg">
<g clip-path="url(#clip0_237_194)">
<path d="M0 64.4807V74.021L0.23592 74.6796C1.59373 78.4526 3.25535 80.7456 5.31753 81.6876C8.10444 82.9588 10.8981 81.545 13.6019 80.1753C17.8892 78.0045 21.3109 76.2716 25.2163 82.8706H4.94074C3.63037 82.8706 2.37368 83.3911 1.44711 84.3177C0.52054 85.2443 0 86.501 0 87.8113L0 97.3516H24.0214C25.3318 97.3516 26.5884 96.8311 27.515 95.9045C28.4416 94.978 28.9621 93.7213 28.9621 92.4109V82.8706L28.4224 81.8709C22.852 71.5413 16.7588 74.627 12.312 76.8809C10.0139 78.0402 8.03994 79.0432 6.50052 78.3389C5.399 77.8297 4.37046 76.3836 3.44545 74.021H24.0214C24.6704 74.021 25.313 73.8932 25.9125 73.6448C26.5121 73.3964 27.0568 73.0323 27.5156 72.5733C27.9744 72.1144 28.3383 71.5695 28.5865 70.9699C28.8347 70.3702 28.9623 69.7276 28.9621 69.0786V59.54H4.94074C3.63037 59.54 2.37368 60.0605 1.44711 60.9871C0.52054 61.9137 0 63.1704 0 64.4807H0Z" fill="white"/>
<path d="M60.0002 0.00842529L59.8423 -6.10352e-05H55.4311L45.0524 13.5492V0.00672802H30.5713V38.2206H45.0524V25.0787L55.4396 38.2529H60.0002L45.1966 19.3148L60.0002 0.00842529Z" fill="white"/>
<path d="M15.0853 25.3488H13.8785V0.00695801H0V57.9312H13.8785V32.5893H15.0853V57.9312H28.9621V0.00695801H15.0853V25.3488Z" fill="white"/>
<path d="M30.5713 97.7537H45.0524V72.4119H55.4498V59.1121H45.0524V57.9308H60.0002V39.8295H30.5713V97.7537Z" fill="white"/>
</g>
<defs>
<clipPath id="clip0_237_194">
<rect width="60" height="97.754" fill="white"/>
</clipPath>
</defs>
</svg>
